<svg width="358" height="365" viewBox="0 0 358 365" fill="none" xmlns="http://www.w3.org/2000/svg">
<path d="M89.9999 183.563C65.9999 159.563 7 151.564 7 151.564C7 151.564 21.5 107.564 61.5 96.5637C69.6244 94.3295 90.4832 98.3297 111.5 103.564C111.5 103.564 135.669 72.4805 164.5 60.5636V217.563H109.319C104.661 204.599 98.3626 191.926 89.9999 183.563Z" fill="#FAFAFA"/>
<mask id="path-2-outside-1_172_113" maskUnits="userSpaceOnUse" x="7" y="0" width="351" height="365" fill="black">
<rect fill="white" x="7" width="351" height="365"/>
<path fill-rule="evenodd" clip-rule="evenodd" d="M23 261.786C103.293 248.683 164.574 178.998 164.574 95C164.574 65.2347 156.879 37.2667 143.37 12.9767C153.727 11.0223 164.413 10 175.337 10C270.196 10 347.094 87.0876 347.094 182.18C347.094 277.272 270.196 354.36 175.337 354.36C109.128 354.36 51.6687 316.805 23 261.786Z"/>
</mask>
<path fill-rule="evenodd" clip-rule="evenodd" d="M23 261.786C103.293 248.683 164.574 178.998 164.574 95C164.574 65.2347 156.879 37.2667 143.37 12.9767C153.727 11.0223 164.413 10 175.337 10C270.196 10 347.094 87.0876 347.094 182.18C347.094 277.272 270.196 354.36 175.337 354.36C109.128 354.36 51.6687 316.805 23 261.786Z" fill="#FAFAFA"/>
<path d="M23 261.786L21.3894 251.916L7.74175 254.144L14.1317 266.407L23 261.786ZM143.37 12.9767L141.516 3.15013L127.892 5.72085L134.631 17.8372L143.37 12.9767ZM154.574 95C154.574 174.018 96.9234 239.59 21.3894 251.916L24.6106 271.655C109.663 257.776 174.574 183.978 174.574 95H154.574ZM134.631 17.8372C147.334 40.6788 154.574 66.9789 154.574 95H174.574C174.574 63.4905 166.424 33.8546 152.109 8.11622L134.631 17.8372ZM145.224 22.8033C154.973 20.9637 165.038 20 175.337 20V0C163.788 0 152.481 1.08095 141.516 3.15013L145.224 22.8033ZM175.337 20C264.65 20 337.094 92.5873 337.094 182.18H357.094C357.094 81.588 275.742 0 175.337 0V20ZM337.094 182.18C337.094 271.773 264.65 344.36 175.337 344.36V364.36C275.742 364.36 357.094 282.772 357.094 182.18H337.094ZM175.337 344.36C113.01 344.36 58.8869 309.018 31.8683 257.165L14.1317 266.407C44.4505 324.593 105.246 364.36 175.337 364.36V344.36Z" fill="#1E1F1E" mask="url(#path-2-outside-1_172_113)"/>
<path fill-rule="evenodd" clip-rule="evenodd" d="M339.849 231.817C318.593 302.712 252.982 354.36 175.337 354.36C125.198 354.36 80.0777 332.824 48.6777 298.475C107.286 252.426 110.279 226.811 109.688 219.657C143.421 188.76 164.574 144.35 164.574 95C164.574 83.6898 163.463 72.6392 161.344 61.9512C162.389 61.4645 163.441 61.0011 164.5 60.5636C180.5 53.9502 262.588 39.4151 304 117.063C313.912 135.648 333.376 207.407 339.849 231.817Z" fill="#1E1F1E"/>
<path d="M116.034 267.648C116.357 270.39 118.842 272.352 121.584 272.029C124.327 271.706 126.288 269.222 125.966 266.479L116.034 267.648ZM7 151.564L2.25122 149.999L0.368984 155.71L6.32819 156.518L7 151.564ZM61.5 96.5637L60.1742 91.7426L61.5 96.5637ZM195.204 203.73C197.781 204.722 200.675 203.436 201.666 200.859C202.658 198.282 201.373 195.389 198.796 194.397L195.204 203.73ZM111.5 103.564L110.292 108.415L111.5 103.564ZM164.5 60.5636L162.59 55.9427L164.5 60.5636ZM304 117.063L308.412 114.71L308.412 114.71L304 117.063ZM7 151.564C6.32819 156.518 6.32758 156.518 6.32719 156.518C6.32736 156.518 6.3272 156.518 6.32753 156.518C6.32821 156.518 6.32977 156.518 6.33222 156.519C6.33713 156.519 6.34557 156.521 6.35752 156.522C6.3814 156.526 6.41928 156.531 6.47079 156.538C6.57381 156.553 6.73134 156.575 6.94052 156.606C7.3589 156.668 7.98371 156.762 8.79208 156.891C10.4092 157.15 12.7587 157.548 15.6582 158.1C21.4629 159.206 29.442 160.925 38.1442 163.376C55.8251 168.357 75.4515 176.086 86.4643 187.099L93.5354 180.028C80.5483 167.041 58.6747 158.77 40.8556 153.751C31.8079 151.202 23.5371 149.421 17.5293 148.277C14.5225 147.704 12.0752 147.289 10.372 147.017C9.52019 146.881 8.85398 146.78 8.39639 146.713C8.16758 146.679 7.99089 146.654 7.86917 146.636C7.80832 146.628 7.7612 146.621 7.72819 146.617C7.71168 146.614 7.6987 146.613 7.68929 146.611C7.68459 146.611 7.68077 146.61 7.67786 146.61C7.6764 146.609 7.67489 146.609 7.67416 146.609C7.67287 146.609 7.67181 146.609 7 151.564ZM60.1742 91.7426C38.6338 97.6662 24.1451 112.421 15.148 125.33C10.6316 131.81 7.42919 137.921 5.35131 142.42C4.3107 144.674 3.5475 146.533 3.03906 147.845C2.78473 148.501 2.59381 149.021 2.4635 149.386C2.39834 149.569 2.3483 149.713 2.31304 149.815C2.29541 149.867 2.28148 149.908 2.27119 149.939C2.26604 149.954 2.26181 149.967 2.25848 149.977C2.25682 149.982 2.25538 149.986 2.25417 149.99C2.25357 149.991 2.25283 149.994 2.25252 149.995C2.25184 149.997 2.25122 149.999 7 151.564C11.7488 153.128 11.7483 153.13 11.7478 153.131C11.7477 153.132 11.7473 153.133 11.7472 153.133C11.7468 153.134 11.7467 153.135 11.7468 153.134C11.7471 153.134 11.7482 153.13 11.7501 153.125C11.7541 153.113 11.7616 153.091 11.7726 153.058C11.7946 152.994 11.8309 152.89 11.8817 152.747C11.9833 152.463 12.143 152.027 12.3633 151.458C12.8041 150.321 13.4862 148.657 14.4299 146.613C16.3208 142.519 19.2434 136.942 23.352 131.048C31.6048 119.207 44.3662 106.461 62.8258 101.385L60.1742 91.7426ZM7 151.564C9.69529 155.775 9.68553 155.781 9.67584 155.787C9.67275 155.789 9.66317 155.795 9.65697 155.799C9.64459 155.807 9.6326 155.814 9.621 155.821C9.59781 155.836 9.57621 155.849 9.55629 155.86C9.51643 155.884 9.48325 155.902 9.45728 155.917C9.40533 155.945 9.38236 155.955 9.39252 155.95C9.41296 155.941 9.56597 155.873 9.88419 155.774C10.5235 155.574 11.8118 155.255 13.9975 155.029C18.3867 154.576 26.2323 154.519 39.4002 156.448C65.7535 160.309 112.863 172.041 195.204 203.73L198.796 194.397C116.137 162.586 68.2465 150.568 40.8498 146.554C27.1427 144.546 18.4258 144.519 12.9712 145.082C10.2351 145.364 8.28119 145.799 6.90878 146.227C6.22114 146.441 5.67591 146.655 5.24957 146.849C5.03634 146.946 4.85285 147.038 4.69622 147.123C4.61792 147.165 4.54636 147.206 4.48121 147.244C4.44864 147.263 4.41767 147.282 4.38827 147.3C4.37356 147.309 4.35925 147.318 4.34533 147.326C4.33836 147.331 4.32821 147.337 4.32473 147.339C4.31466 147.346 4.30471 147.352 7 151.564ZM62.8258 101.385C64.1042 101.033 66.3147 100.839 69.5765 100.975C72.7492 101.107 76.5748 101.533 80.8983 102.204C89.5416 103.546 99.8458 105.814 110.292 108.415L112.708 98.7119C102.137 96.0793 91.5037 93.7305 82.4323 92.3223C77.8986 91.6185 73.6725 91.1363 69.9924 90.9832C66.4015 90.8337 62.958 90.9771 60.1742 91.7426L62.8258 101.385ZM110.292 108.415C122.229 111.388 134.159 114.743 143.118 117.359C147.594 118.666 151.321 119.787 153.926 120.58C155.229 120.976 156.252 121.291 156.947 121.506C157.294 121.614 157.56 121.696 157.738 121.752C157.827 121.779 157.894 121.8 157.939 121.814C157.961 121.821 157.978 121.826 157.989 121.83C157.994 121.831 157.998 121.833 158.001 121.834C158.002 121.834 158.003 121.834 158.003 121.834C158.004 121.834 158.004 121.835 158.004 121.835C158.004 121.835 158.004 121.835 159.5 117.064C160.996 112.293 160.996 112.293 160.996 112.293C160.995 112.293 160.995 112.292 160.995 112.292C160.994 112.292 160.992 112.292 160.991 112.291C160.987 112.29 160.983 112.289 160.977 112.287C160.964 112.283 160.946 112.277 160.922 112.27C160.875 112.255 160.804 112.233 160.712 112.204C160.528 112.147 160.256 112.062 159.901 111.952C159.193 111.733 158.156 111.414 156.838 111.013C154.202 110.211 150.438 109.079 145.921 107.76C136.892 105.124 124.822 101.729 112.708 98.7119L110.292 108.415ZM111.5 103.564C115.447 106.633 115.447 106.633 115.446 106.634C115.446 106.634 115.446 106.634 115.446 106.634C115.446 106.635 115.446 106.634 115.447 106.633C115.448 106.631 115.451 106.628 115.455 106.622C115.464 106.612 115.478 106.593 115.498 106.568C115.538 106.517 115.601 106.438 115.686 106.331C115.856 106.118 116.115 105.796 116.459 105.378C117.145 104.542 118.168 103.322 119.488 101.816C122.13 98.7999 125.952 94.6502 130.651 90.1394C140.122 81.0471 152.841 70.793 166.41 65.1844L162.59 55.9427C147.328 62.2511 133.547 73.4971 123.726 82.9256C118.778 87.6751 114.756 92.0411 111.966 95.2257C110.57 96.8194 109.479 98.121 108.731 99.0314C108.357 99.4867 108.069 99.8444 107.871 100.092C107.772 100.216 107.695 100.313 107.642 100.38C107.616 100.414 107.595 100.441 107.58 100.46C107.572 100.469 107.566 100.477 107.562 100.483C107.56 100.486 107.558 100.488 107.556 100.49C107.556 100.491 107.555 100.492 107.554 100.493C107.553 100.494 107.553 100.495 111.5 103.564ZM166.41 65.1844C173.506 62.2513 197.041 57.0622 223.79 62.128C250.243 67.1378 279.704 82.1326 299.588 119.416L308.412 114.71C286.884 74.3458 254.594 57.7841 225.651 52.3027C197.003 46.8773 171.494 52.2625 162.59 55.9427L166.41 65.1844ZM299.588 119.416C302.354 124.603 306.109 134.697 310.249 147.322C314.346 159.817 318.701 174.413 322.693 188.346C326.684 202.273 330.301 215.503 332.921 225.253C334.231 230.127 335.292 234.13 336.024 236.913C336.39 238.305 336.675 239.391 336.867 240.129C336.963 240.498 337.037 240.78 337.086 240.969C337.11 241.063 337.129 241.135 337.141 241.182C337.147 241.206 337.152 241.224 337.155 241.236C337.157 241.242 337.158 241.246 337.159 241.249C337.159 241.25 337.159 241.251 337.159 241.252C337.159 241.253 337.16 241.253 342 240C346.84 238.747 346.84 238.746 346.84 238.746C346.84 238.745 346.84 238.743 346.839 238.742C346.838 238.739 346.837 238.734 346.835 238.728C346.832 238.715 346.827 238.696 346.821 238.672C346.808 238.623 346.789 238.55 346.764 238.454C346.714 238.261 346.64 237.976 346.543 237.604C346.349 236.86 346.063 235.767 345.695 234.368C344.958 231.57 343.894 227.551 342.579 222.658C339.949 212.873 336.316 199.587 332.307 185.592C328.299 171.604 323.904 156.872 319.751 144.207C315.641 131.672 311.646 120.774 308.412 114.71L299.588 119.416ZM121 267.063C125.966 266.479 125.966 266.479 125.966 266.478C125.966 266.477 125.965 266.477 125.965 266.476C125.965 266.474 125.965 266.472 125.965 266.47C125.964 266.466 125.963 266.459 125.962 266.452C125.961 266.437 125.958 266.415 125.955 266.388C125.948 266.333 125.939 266.255 125.926 266.153C125.9 265.949 125.862 265.653 125.812 265.271C125.71 264.506 125.556 263.396 125.344 261.992C124.92 259.184 124.264 255.197 123.332 250.442C121.473 240.955 118.494 228.314 114.025 215.873L104.614 219.254C108.853 231.054 111.715 243.163 113.519 252.366C114.419 256.956 115.05 260.798 115.456 263.484C115.658 264.827 115.804 265.879 115.899 266.591C115.946 266.946 115.981 267.216 116.003 267.395C116.014 267.484 116.022 267.55 116.028 267.592C116.03 267.614 116.032 267.629 116.033 267.638C116.034 267.643 116.034 267.646 116.034 267.647C116.034 267.648 116.034 267.649 116.034 267.649C116.034 267.649 116.034 267.648 116.034 267.648C116.034 267.648 116.034 267.648 121 267.063ZM114.025 215.873C109.284 202.678 102.681 189.174 93.5354 180.028L86.4643 187.099C94.044 194.679 100.039 206.52 104.614 219.254L114.025 215.873ZM109.319 217.563C104.623 219.279 104.62 219.272 104.618 219.265C104.617 219.263 104.614 219.256 104.613 219.252C104.61 219.243 104.607 219.234 104.604 219.226C104.598 219.21 104.593 219.196 104.589 219.183C104.58 219.157 104.573 219.137 104.569 219.123C104.56 219.095 104.56 219.091 104.565 219.112C104.576 219.153 104.61 219.294 104.645 219.536C104.715 220.017 104.795 220.915 104.703 222.242C104.52 224.886 103.649 229.338 100.544 235.676C94.3041 248.415 79.1184 268.608 42.9397 296.609L49.0603 304.517C85.8816 276.019 102.355 254.711 109.525 240.075C113.125 232.726 114.396 227.022 114.679 222.932C114.82 220.892 114.714 219.277 114.54 218.089C114.453 217.496 114.35 217.012 114.254 216.638C114.207 216.451 114.161 216.291 114.12 216.16C114.1 216.094 114.08 216.035 114.063 215.983C114.054 215.957 114.046 215.933 114.038 215.91C114.034 215.899 114.03 215.888 114.026 215.878C114.024 215.872 114.022 215.865 114.021 215.862C114.018 215.855 114.015 215.848 109.319 217.563Z" fill="#1E1F1E"/>
<ellipse cx="238" cy="125.5" rx="15" ry="13.5" fill="#FAFAFA"/>
</svg>
